<?xml version="1.0"?>
<svg xmlns:rdf="http://www.w3.org/1999/02/22-rdf-syntax-ns#" xmlns="http://www.w3.org/2000/svg" xmlns:cc="http://web.resource.org/cc/" xmlns:dc="http://purl.org/dc/elements/1.1/" xmlns:sodipodi="http://inkscape.sourceforge.net/DTD/sodipodi-0.dtd" xmlns:svg="http://www.w3.org/2000/svg" id="Layer_1" style="enable-background:new 0 0 121.491 137.411" space="preserve" sodipodi:version="0.32" viewBox="0 0 121.491 137.411" version="1.1" sodipodi:docname="cuboverde.svg" sodipodi:docbase="F:\openclip\svg da inviare">
  <sodipodi:namedview id="base" bordercolor="#666666" borderopacity="1.0" pagecolor="#ffffff"/>
  <g id="g3">
    <radialGradient id="XMLID_2_" gradientUnits="userSpaceOnUse" cy="68.639" cx="60.498" r="64.037">
      <stop id="stop6" stop-color="#7DD909" offset=".0056"/>
      <stop id="stop8" stop-color="#7CD609" offset=".4147"/>
      <stop id="stop10" stop-color="#77CE08" offset=".6676"/>
      <stop id="stop12" stop-color="#6EBF08" offset=".8776"/>
      <stop id="stop14" stop-color="#67B307" offset="1"/>
    </radialGradient>
    <path id="path16" fill="url(#XMLID_2_)" d="m116.96 32.291c-14.447-8.528-28.893-17.053-43.34-25.581-5.742-3.391-12.147-8.425-19.039-4.357-6.141 3.627-12.284 7.253-18.428 10.881-8.797 5.192-17.596 10.385-26.394 15.577-5.673 3.351-6.938 3.861-7.647 10.844-1.476 14.535-1.201 29.33-1.138 43.92 0.022 5.103-1.701 15.971 1.047 19.845 1.108 1.784 3.873 2.918 5.613 3.944 15.419 9.103 30.837 18.203 46.256 27.305 6.468 3.818 11.764 0.758 17.326-2.525 8.617-5.087 17.235-10.172 25.854-15.259 6.421-3.792 12.843-7.581 19.263-11.37 4.8-2.832 3.795-7.616 3.916-12.357 0.272-10.711 0.394-21.434 0.165-32.148-0.184-8.615 0.358-18.775-2.592-27.024-0.22-0.586-0.47-1.195-0.87-1.69"/>
    <path id="path18" fill="#73B507" d="m54.313 1.579l-49.672 29.318c-4.779 2.821-3.734 13.152-3.969 17.815-0.429 8.521-0.517 17.059-0.536 25.589-0.009 4.225-0.718 29.56 1.201 29.543 2.87 4.618 11.941 7.787 16.345 10.386 9.115 5.381 18.231 10.762 27.347 16.143 6.305 3.722 13.895 9.961 21.488 5.48 5.619-2.676 10.938-6.457 16.291-9.617 8.956-5.286 17.91-10.569 26.863-15.854 2.572-1.52 10.988-5.177 11.133-8.972 0.706-18.637 1.238-37.534-0.347-56.132-0.285-3.324-0.071-11.903-3.495-13.924-6.025-3.557-12.052-7.114-18.077-10.671-8.276-4.886-16.555-9.771-24.832-14.657-5.941-3.505-12.608-8.655-19.738-4.447m-52.556 76.151c0-13.489-0.41-27.402 1.477-40.804 0.695-4.938 3.557-5.428 7.746-7.901 14.706-8.68 29.412-17.358 44.117-26.039 6.914-4.08 14.324 2.177 20.047 5.556 9.195 5.427 18.391 10.853 27.584 16.281 4.06 2.396 13.261 5.446 14.661 10.438 2.009 7.175 1.905 15.187 2.124 22.57 0.316 10.669 0.246 21.352 0.016 32.021-0.122 5.686 0.731 10.157-3.064 14.459-0.782 0.887-2.039 1.393-3.046 1.988-6.182 3.647-12.362 7.296-18.544 10.943-7.181 4.239-14.363 8.479-21.545 12.718-5.065 2.99-10.324 7.327-16.606 5.222-4.142-1.39-8.094-4.554-11.809-6.747-7.728-4.563-15.453-9.122-23.18-13.685-5.425-3.2-10.85-6.403-16.275-9.604-1.294-0.764-2.212-1.939-3.479-2.688-0.138-8.233-0.225-16.476-0.225-24.72"/>
    <path id="path20" fill="#BBFF3B" d="m74.307 64.458c13.191-5.561 25.174-13.476 37.868-20.005 0.394-0.203 6.204-2.812 4.259-0.859-2.976 2.988-7.072 5.159-10.562 7.471-10.767 7.131-22.445 14.127-31.381 23.573-7.309 7.725-7.053 21.045-7.963 30.992-0.391 4.244-0.471 8.846-1.772 12.939-1.08 3.392-2.713 1.054-3.23-1.195-2.516-10.935-1.633-22.377-5.091-33.184-4.243-13.238-20.313-21.914-31.333-29.017-4.881-3.145-9.904-6.078-14.744-9.285-0.747-0.494-5.609-4.243-1.934-3.022 9.153 3.041 17.766 8.798 26.396 13.038 6.497 3.192 13.072 6.249 19.817 8.882 7.308 2.853 12.364 2.744 19.662-0.334"/>
    <path id="path22" fill="#B2FF21" d="m116.24 34.036c0-1.316-7.219-4.879-8.176-5.481-6.153-3.862-12.378-7.612-18.645-11.287-6.684-3.918-13.416-7.768-20.288-11.345-3.183-1.658-7.13-4.979-10.764-3.494-10.33 4.216-20.047 10.565-29.622 16.224-5.195 3.069-10.369 6.18-15.495 9.362-0.836 0.519-7.309 3.678-7.309 4.815 0-1.494 19.105-9.976 20.875-10.929 10.172-5.477 20.28-11.246 30.769-16.105 3.938-1.825 5.818 0.212 9.654 2.22 6.978 3.653 13.906 7.404 20.833 11.154 6.506 3.524 13 7.068 19.528 10.554 0.62 0.329 8.64 3.913 8.64 4.312"/>
    <path id="path24" fill="#B2FF21" d="m4.729 103.53c0 1.317 7.219 4.88 8.177 5.481 6.153 3.863 12.378 7.613 18.645 11.287 6.683 3.919 13.416 7.769 20.288 11.347 3.183 1.659 7.129 4.978 10.764 3.493 10.329-4.215 20.047-10.564 29.622-16.223 5.195-3.07 10.369-6.18 15.494-9.362 0.837-0.52 7.309-3.678 7.309-4.815 0 1.494-19.104 9.976-20.873 10.93-10.173 5.477-20.281 11.245-30.769 16.104-3.939 1.825-5.818-0.213-9.655-2.221-6.977-3.652-13.905-7.402-20.832-11.152-6.507-3.524-13.001-7.069-19.528-10.555-0.624-0.33-8.644-3.91-8.644-4.31"/>
  </g>
  <metadata>
    <rdf:RDF>
      <cc:Work>
        <dc:format>image/svg+xml</dc:format>
        <dc:type rdf:resource="http://purl.org/dc/dcmitype/StillImage"/>
        <cc:license rdf:resource="http://creativecommons.org/licenses/publicdomain/"/>
        <dc:publisher>
          <cc:Agent rdf:about="http://openclipart.org/">
            <dc:title>Openclipart</dc:title>
          </cc:Agent>
        </dc:publisher>
        <dc:title>Architetto -- Cubo verde</dc:title>
        <dc:date>2009-05-01T21:04:00</dc:date>
        <dc:description>Green cube/block by Francesco 'Architetto' Rollandin.</dc:description>
        <dc:source>http://openclipart.org/detail/25693/architetto----cubo-verde-by-anonymous-25693</dc:source>
        <dc:creator>
          <cc:Agent>
            <dc:title>Anonymous</dc:title>
          </cc:Agent>
        </dc:creator>
        <dc:subject>
          <rdf:Bag>
            <rdf:li>abstract</rdf:li>
            <rdf:li>block</rdf:li>
            <rdf:li>clip art</rdf:li>
            <rdf:li>clipart</rdf:li>
            <rdf:li>cube</rdf:li>
            <rdf:li>green</rdf:li>
            <rdf:li>image</rdf:li>
            <rdf:li>media</rdf:li>
            <rdf:li>public domain</rdf:li>
            <rdf:li>svg</rdf:li>
          </rdf:Bag>
        </dc:subject>
      </cc:Work>
      <cc:License rdf:about="http://creativecommons.org/licenses/publicdomain/">
        <cc:permits rdf:resource="http://creativecommons.org/ns#Reproduction"/>
        <cc:permits rdf:resource="http://creativecommons.org/ns#Distribution"/>
        <cc:permits rdf:resource="http://creativecommons.org/ns#DerivativeWorks"/>
      </cc:License>
    </rdf:RDF>
  </metadata>
</svg>
